<?xml version="1.0" encoding="UTF-8" standalone="no"?>
<!-- Created with Inkscape (http://www.inkscape.org/) -->

<svg
   xmlns:dc="http://purl.org/dc/elements/1.1/"
   xmlns:cc="http://creativecommons.org/ns#"
   xmlns:rdf="http://www.w3.org/1999/02/22-rdf-syntax-ns#"
   xmlns:svg="http://www.w3.org/2000/svg"
   xmlns="http://www.w3.org/2000/svg"
   xmlns:sodipodi="http://sodipodi.sourceforge.net/DTD/sodipodi-0.dtd"
   xmlns:inkscape="http://www.inkscape.org/namespaces/inkscape"
   version="1.1"
   id="svg2"
   xml:space="preserve"
   width="519.14667"
   height="155.34666"
   viewBox="0 0 519.14667 155.34666"
   sodipodi:docname="CTK_Logo_horizontal.svg"
   inkscape:version="0.92.3 (2405546, 2018-03-11)"><metadata
     id="metadata8"><rdf:RDF><cc:Work
         rdf:about=""><dc:format>image/svg+xml</dc:format><dc:type
           rdf:resource="http://purl.org/dc/dcmitype/StillImage" /><dc:title></dc:title></cc:Work></rdf:RDF></metadata><defs
     id="defs6" /><sodipodi:namedview
     pagecolor="#ffffff"
     bordercolor="#666666"
     borderopacity="1"
     objecttolerance="10"
     gridtolerance="10"
     guidetolerance="10"
     inkscape:pageopacity="0"
     inkscape:pageshadow="2"
     inkscape:window-width="640"
     inkscape:window-height="480"
     id="namedview4"
     showgrid="false"
     inkscape:zoom="0.62410109"
     inkscape:cx="259.57333"
     inkscape:cy="77.673332"
     inkscape:window-x="154"
     inkscape:window-y="0"
     inkscape:window-maximized="0"
     inkscape:current-layer="g12" /><g
     id="g10"
     inkscape:groupmode="layer"
     inkscape:label="ink_ext_XXXXXX"
     transform="matrix(1.3333333,0,0,-1.3333333,0,155.34667)"><g
       id="g12"
       transform="scale(0.1)"><path
         d="m 973.574,491.027 c 0,83.086 64.076,141.786 140.136,141.786 59.52,0 103.34,-33.895 103.34,-66.551 0,-17.364 -11.58,-29.344 -26.46,-29.344 -15.3,0 -26.45,9.922 -26.45,24.793 0,7.031 3.3,12.82 7.02,15.715 -7.44,9.09 -27.69,21.082 -58.28,21.082 -58.29,0 -100.86,-47.949 -100.86,-107.063 0,-56.629 41.33,-106.238 102.93,-106.238 32.24,0 58.69,13.231 81.43,35.559 l 23.56,-26.047 c -26.87,-28.106 -65.31,-43.821 -104.99,-43.821 -83.92,0 -141.376,61.184 -141.376,140.129"
         style="fill:#582890;fill-opacity:1;fill-rule:nonzero;stroke:none"
         id="path14"
         inkscape:connector-curvature="0" /><path
         d="m 1257.22,389.348 h 33.07 v 205.019 h -33.07 v 33.485 h 105.41 v -33.485 h -34.73 v -83.496 h 140.13 v 83.496 h -34.72 v 33.485 h 105.41 v -33.485 h -33.07 V 389.348 h 33.07 v -33.489 h -105.41 v 33.489 h 34.72 v 88.867 H 1327.9 v -88.867 h 34.73 v -33.489 h -105.41 v 33.489"
         style="fill:#582890;fill-opacity:1;fill-rule:nonzero;stroke:none"
         id="path16"
         inkscape:connector-curvature="0" /><path
         d="m 1742.29,546.418 c 0,31.836 -26.04,47.949 -66.14,47.949 h -31.42 v -98.379 c 7.03,-0.41 16.54,-0.82 30.18,-0.82 38.85,0 67.38,18.594 67.38,51.25 z m -168.24,-157.07 h 33.07 v 205.019 h -33.07 v 33.485 h 104.17 c 61.17,0 102.51,-28.524 102.51,-80.196 0,-36.375 -23.15,-62.832 -55.39,-74.402 l 50.43,-83.906 h 31.83 v -33.489 h -57.46 l -61.59,107.895 c -5.38,-0.422 -10.75,-0.832 -16.12,-0.832 -9.92,0 -20.67,0.41 -27.7,0.832 v -74.406 h 34.73 v -33.489 h -105.41 v 33.489"
         style="fill:#582890;fill-opacity:1;fill-rule:nonzero;stroke:none"
         id="path18"
         inkscape:connector-curvature="0" /><path
         d="M 1836.45,389.348 H 1872 v 205.019 h -35.55 v 33.485 h 107.89 V 594.367 H 1909.2 V 389.348 h 35.14 v -33.489 h -107.89 v 33.489"
         style="fill:#582890;fill-opacity:1;fill-rule:nonzero;stroke:none"
         id="path20"
         inkscape:connector-curvature="0" /><path
         d="m 1978.91,410.422 c 0,17.363 10.33,28.523 24.8,28.523 14.88,0 24.8,-11.16 24.8,-22.73 0,-7.445 -2.06,-12.817 -5.38,-17.777 9.51,-8.27 27.7,-14.469 49.61,-14.469 33.08,0 54.15,16.121 54.15,42.988 0,25.633 -24.81,37.613 -53.73,48.367 -48.78,18.184 -83.92,34.719 -83.92,83.086 0,42.578 33.89,74.403 86.4,74.403 47.53,0 84.73,-25.633 84.73,-55.797 0,-16.957 -10.75,-26.875 -23.97,-26.875 -15.71,0 -25.21,11.57 -25.21,23.972 0,6.621 2.06,10.75 4.54,14.473 -7.43,6.609 -23.57,11.57 -40.51,11.57 -30.18,0 -48.36,-16.121 -48.36,-38.855 0,-26.043 24.39,-37.199 55.38,-49.192 46.72,-17.359 81.86,-34.304 81.86,-82.254 0,-49.609 -38.87,-78.957 -92.19,-78.957 -53.32,0 -93,30.176 -93,59.524"
         style="fill:#582890;fill-opacity:1;fill-rule:nonzero;stroke:none"
         id="path22"
         inkscape:connector-curvature="0" /><path
         d="m 2258.42,389.348 h 35.55 v 206.257 h -60.76 v -43.394 h -35.56 v 75.641 h 230.26 v -75.641 h -35.56 v 43.394 h -60.76 V 389.348 h 35.54 v -33.489 h -108.71 v 33.489"
         style="fill:#582890;fill-opacity:1;fill-rule:nonzero;stroke:none"
         id="path24"
         inkscape:connector-curvature="0" /><path
         d="m 2910.17,389.348 h 33.07 v 205.019 h -33.07 v 33.485 h 105.41 v -32.657 h -34.73 V 487.727 l 106.66,107.468 h -34.31 v 32.657 h 111.6 v -33.485 h -30.18 l -83.08,-82.258 79.37,-122.761 h 34.73 v -33.489 h -58.71 l -83.5,131.036 -42.58,-42.157 v -55.39 h 34.73 v -33.489 h -105.41 v 33.489"
         style="fill:#582890;fill-opacity:1;fill-rule:nonzero;stroke:none"
         id="path26"
         inkscape:connector-curvature="0" /><path
         d="m 3195.46,389.348 h 35.55 v 205.019 h -35.55 v 33.485 h 107.89 v -33.485 h -35.13 V 389.348 h 35.13 v -33.489 h -107.89 v 33.489"
         style="fill:#582890;fill-opacity:1;fill-rule:nonzero;stroke:none"
         id="path28"
         inkscape:connector-curvature="0" /><path
         d="M 3407.71,561.301 V 389.348 h 34.73 v -33.489 h -104.18 v 33.489 h 33.06 v 205.019 h -33.06 v 33.485 h 65.31 l 147.17,-191.793 v 158.308 h -34.73 v 33.485 h 102.93 V 594.367 H 3587.1 V 355.031 l -20.66,-0.41 -158.73,206.68"
         style="fill:#582890;fill-opacity:1;fill-rule:nonzero;stroke:none"
         id="path30"
         inkscape:connector-curvature="0" /><path
         d="m 3645.95,490.207 c 0,85.145 64.49,142.606 141.8,142.606 61.99,0 103.34,-33.485 103.34,-64.071 0,-17.363 -11.17,-28.933 -25.65,-28.933 -15.29,0 -26.44,10.332 -26.44,25.211 0,6.203 2.07,11.574 5.37,14.882 -9.51,9.094 -29.36,18.606 -57.87,18.606 -59.53,0 -102.09,-45.891 -102.09,-107.891 0,-64.07 45.88,-106.23 97.95,-106.23 29.76,0 53.34,8.261 74.41,22.312 v 53.332 h -72.34 v 31.824 h 109.14 V 355.859 h -35.98 v 21.907 c -21.48,-16.114 -47.11,-26.868 -80.19,-26.868 -67.78,0 -131.45,52.5 -131.45,139.309"
         style="fill:#582890;fill-opacity:1;fill-rule:nonzero;stroke:none"
         id="path32"
         inkscape:connector-curvature="0" /><path
         d="m 2523.24,493.742 h 36.05 l 4.65,18.899 h -36.04 l 8.72,35.164 -23.07,-7.492 -0.52,-0.165 -6.88,-27.507 h -21.07 l -4.65,-18.899 h 21.07 l -16.32,-66.394 c -1.54,-5.532 -2.26,-9.844 -2.26,-13.567 0,-13.808 10.44,-23.457 25.4,-23.457 11.3,0 23.31,5.442 37.78,17.129 l 0.73,0.598 -8.3,11.812 -0.82,-0.547 c -12.25,-8.164 -18.33,-10.918 -24.12,-10.918 -4.96,0 -8.42,3.469 -8.42,8.43 0,2.91 0.52,6.184 1.63,10.02 l 16.44,66.894"
         style="fill:#582890;fill-opacity:1;fill-rule:nonzero;stroke:none"
         id="path34"
         inkscape:connector-curvature="0" /><path
         d="m 2686.4,424.387 c -4.78,-12.571 -9.15,-17.93 -14.6,-17.93 -4.34,0 -7.04,3.02 -7.04,7.871 0,2.129 0.56,6.25 1.63,10 l 10.25,38.231 c 2.02,6.632 3.09,13.168 3.09,18.879 -0.28,19.207 -14.81,33.144 -34.55,33.144 -17.42,0 -30.46,-13.516 -37.22,-22.527 l 24.33,104.207 0.29,1.218 h -43.35 l -4.65,-18.621 h 22.47 l -42.96,-185.097 -0.29,-1.219 h 21.46 l 14.04,60.934 c 6.87,29.179 25.44,42.484 39.79,42.484 10.91,0 18.41,-6.75 18.67,-16.75 0,-4.473 -0.56,-8.543 -1.9,-13.606 l -10.54,-38.835 c -1.23,-4.922 -1.97,-9.883 -1.97,-13.27 0,-13.703 9.87,-22.902 24.57,-22.902 14.12,0 23.96,9.746 30.06,29.816 l 0.28,0.926 -11.52,3.957 -0.34,-0.91"
         style="fill:#582890;fill-opacity:1;fill-rule:nonzero;stroke:none"
         id="path36"
         inkscape:connector-curvature="0" /><path
         d="m 2774.68,495.961 c 19.7,0 26.73,-11.66 26.73,-22.57 0,-2.774 -0.3,-6.805 -1.64,-10.657 h -65.82 c 7.22,19.934 23.45,33.227 40.73,33.227 z m 0.83,18.902 c -36.01,0 -66.43,-33.718 -66.43,-73.64 0,-34.969 27.97,-50.899 53.95,-50.899 15.66,0 26.3,2.356 39.26,8.692 l 0.43,0.214 4.73,21.438 -1.91,-1.008 c -14.79,-7.812 -25.26,-10.715 -38.62,-10.715 -21.61,0 -36.71,13.164 -36.71,32.004 0,1.66 0,3.242 0.17,4.824 h 86.59 l 0.24,0.665 c 2.98,8.378 4.49,16.511 4.49,24.179 0,26.887 -18.13,44.246 -46.19,44.246"
         style="fill:#582890;fill-opacity:1;fill-rule:nonzero;stroke:none"
         id="path38"
         inkscape:connector-curvature="0" /><path
         d="M 625.41,439.492 H 481.371 c 0.012,-19.988 0.02,-43.808 0.024,-68.808 h 128.898 c 6.914,21.543 12.07,44.472 15.117,68.808"
         style="fill:#fbc22e;fill-opacity:1;fill-rule:nonzero;stroke:none"
         id="path40"
         inkscape:connector-curvature="0" /><path
         d="M 588.176,319.125 H 481.41 c 0.008,-24.633 0.012,-48.43 0.008,-68.812 h 60.789 c 17.363,20.507 32.981,43.402 45.969,68.812"
         style="fill:#fbc22e;fill-opacity:1;fill-rule:nonzero;stroke:none"
         id="path42"
         inkscape:connector-curvature="0" /><path
         d="m 147.734,370.684 h 128.875 c 0.008,25 0.016,48.82 0.028,68.808 H 132.59 c 3.047,-24.336 8.199,-47.265 15.144,-68.808"
         style="fill:#fbc22e;fill-opacity:1;fill-rule:nonzero;stroke:none"
         id="path44"
         inkscape:connector-curvature="0" /><path
         d="m 215.801,250.313 h 60.793 c -0.008,20.382 0,44.179 0.004,68.812 H 169.824 c 13.008,-25.41 28.621,-48.305 45.977,-68.812"
         style="fill:#fbc22e;fill-opacity:1;fill-rule:nonzero;stroke:none"
         id="path46"
         inkscape:connector-curvature="0" /><path
         d="M 686.516,699.086 H 481.348 v 102.578 h 205.168 z m 0,-136.801 c 0,0 -180.344,0 -271.536,0 0,-100.269 -0.183,-418.254 0,-418.164 14.981,7.641 56.993,34.199 66.368,45.02 0.043,0.058 0.062,25.304 0.07,61.172 0.004,20.382 0,44.179 -0.008,68.812 -0.004,17.105 -0.008,34.566 -0.015,51.559 -0.004,25 -0.012,48.82 -0.024,68.808 -0.016,32.258 -0.023,54.414 -0.023,54.414 0,0 136.797,0 205.168,0 C 683.75,338.652 612.324,224.887 523.152,151.969 491.836,126.352 419.52,72.3789 379.004,72.1914 338.496,72.3789 266.172,126.352 234.863,151.969 145.684,224.887 74.2695,338.652 71.4844,493.906 c 68.3866,0 205.1756,0 205.1756,0 0,0 -0.012,-22.156 -0.023,-54.414 -0.012,-19.988 -0.02,-43.808 -0.028,-68.808 -0.004,-16.993 -0.007,-34.454 -0.011,-51.559 -0.004,-24.633 -0.012,-48.43 -0.004,-68.812 0.004,-35.868 0.023,-61.114 0.066,-61.172 9.356,-10.821 51.406,-37.379 66.367,-45.02 0.176,-0.09 0,317.895 0,418.164 -91.172,0 -271.5426,0 -271.5426,0 v 68.399 H 343.027 v 170.98 H 414.98 V 630.684 H 686.516 Z M 71.4844,801.664 H 276.66 V 699.086 H 71.4844 Z m 685.4496,55.215 c 0.332,5.387 1.074,9.375 1.074,9.375 L 0,866.254 c 0,0 0.742188,-3.988 1.07422,-9.375 C 10.0977,721.43 -6.875,582.852 5.11719,446.547 16.8633,313.227 70.5078,214.277 158.867,129.16 198.887,90.6289 313.586,0.199219 379.004,0 c 65.43,0.199219 180.105,90.6289 220.129,129.16 88.367,85.117 142.019,184.067 153.758,317.387 11.98,136.305 -4.981,274.883 4.043,410.332"
         style="fill:#582890;fill-opacity:1;fill-rule:nonzero;stroke:none"
         id="path48"
         inkscape:connector-curvature="0" /><path
         d="m 492.859,1067.7 c 2.871,-5.78 4.657,-12.32 4.657,-19.36 0,-22.67 -16.887,-41.05 -37.715,-41.05 -20.832,0 -37.715,18.38 -37.715,41.05 0,17.76 10.41,32.74 24.902,38.46 l -67.832,78.28 -68.062,-78.3 c 14.465,-5.74 24.847,-20.7 24.847,-38.44 0,-22.67 -16.882,-41.05 -37.714,-41.05 -20.829,0 -37.715,18.38 -37.715,41.05 0,7.04 1.785,13.58 4.652,19.36 l -99.203,26.7 39.602,-166.017 h 346.902 l 39.601,166.017 -99.207,-26.7"
         style="fill:#582890;fill-opacity:1;fill-rule:nonzero;stroke:none"
         id="path50"
         inkscape:connector-curvature="0" /></g></g></svg>